<svg t="1773072682182" class="icon" viewBox="0 0 1024 1024" version="1.1" xmlns="http://www.w3.org/2000/svg" p-id="3702" width="200" height="200"><path d="M622.473029 318.672199l-89.228216-16.99585v-25.493776c0-12.746888-8.497925-21.244813-21.244813-21.244814s-21.244813 8.497925-21.244813 21.244814v42.489626c0 8.497925 8.497925 16.995851 16.99585 21.244813l106.224067 21.244814h4.248962c8.497925 0 16.995851-8.497925 21.244814-16.995851 0-12.746888-4.248963-25.493776-16.995851-25.493776z m246.439834-225.195021c-25.493776-38.240664-301.676349-93.477178-314.423236-93.477178-33.991701 0-114.721992 84.979253-135.966805 110.473029-55.236515 63.73444-55.236515 76.481328-55.236515 84.979253 0 12.746888 8.497925 21.244813 12.746888 33.991701 4.248963 8.497925 16.995851 29.742739 12.746888 33.991702-4.248963 8.497925-33.991701 29.742739-59.485477 50.987552-97.726141 80.73029-131.717842 110.473029-135.966805 131.717842-4.248963 25.493776 21.244813 46.738589 50.987552 67.983402 8.497925 8.497925 25.493776 16.995851 29.742738 21.244814-4.248963 8.497925-16.995851 25.493776-29.742738 42.489626-59.485477 84.979253-114.721992 165.709544-97.726141 220.946058 4.248963 12.746888 16.995851 25.493776 38.240664 33.991701 25.493776 12.746888 67.983402 21.244813 110.473029 21.244814l-55.236515 72.232365c-12.746888 21.244813-12.746888 42.489627 0 63.73444s33.991701 33.991701 55.236515 33.991701h378.157676c16.995851 0 33.991701-8.497925 46.738589-21.244813 12.746888-12.746888 16.995851-29.742739 16.995851-46.738589l-16.995851-250.688797v-12.746888c16.995851-16.995851 29.742739-38.240664 42.489627-63.73444v-4.248963c29.742739-72.232365 46.738589-165.709544 55.236514-229.443983 4.248963-21.244813 4.248963-38.240664 8.497926-50.987552 0-8.497925 4.248963-21.244813 8.497925-33.991701 42.489627-144.46473 50.987552-195.452282 33.991701-216.697096z m-72.232365 208.199171c-4.248963 12.746888-8.497925 25.493776-8.497925 33.991701-4.248963 12.746888-4.248963 29.742739-8.497926 50.987552-8.497925 55.236515-21.244813 144.46473-46.738589 208.19917-33.991701 0-67.983402-8.497925-72.232365-25.493776-4.248963-25.493776 8.497925-101.975104 42.489627-199.701245 4.248963-12.746888-4.248963-21.244813-12.746888-25.493776-12.746888-4.248963-21.244813 4.248963-25.493776 12.746888-33.991701 114.721992-50.987552 186.954357-42.489627 225.195021 8.497925 38.240664 50.987552 55.236515 93.477178 59.485477-8.497925 8.497925-12.746888 21.244813-21.244813 25.493776-4.248963 4.248963-8.497925 8.497925-8.497925 16.995851l16.995851 276.182572c0 4.248963 0 12.746888-4.248963 16.995851-4.248963 4.248963-8.497925 8.497925-16.995851 8.497925h-378.157676c-12.746888 0-16.995851-8.497925-16.995851-12.746888 0-4.248963-4.248963-12.746888 0-21.244813l72.232365-97.726141c46.738589 0 89.228216-8.497925 123.219917-21.244814 12.746888-4.248963 16.995851-16.995851 12.746888-29.742738s-16.995851-16.995851-29.742738-12.746888c-33.991701 12.746888-76.481328 16.995851-114.721992 21.244813h-8.497925c-72.232365 0-140.215768-12.746888-144.464731-29.742738-8.497925-29.742739 29.742739-93.477178 63.73444-144.464731h63.73444c12.746888 0 21.244813-8.497925 21.244813-21.244813s-8.497925-21.244813-21.244813-21.244813h-38.240664c25.493776-33.991701 33.991701-50.987552 38.240664-63.73444 0-21.244813-21.244813-38.240664-50.987552-59.485477-8.497925-8.497925-25.493776-16.995851-33.991701-25.493776 16.995851-21.244813 84.979253-72.232365 118.970954-101.975104 33.991701-29.742739 55.236515-46.738589 63.73444-55.236514 25.493776-25.493776 4.248963-59.485477-4.248962-80.730291-4.248963-4.248963-8.497925-12.746888-8.497926-16.99585 12.746888-29.742739 123.219917-140.215768 148.713693-148.713693 25.493776 0 259.186722 55.236515 280.431535 76.481327 0 21.244813-29.742739 140.215768-42.489626 182.705395z" p-id="3703"></path></svg>