<svg t="1773072569559" class="icon" viewBox="0 0 1024 1024" version="1.1" xmlns="http://www.w3.org/2000/svg" p-id="2047" width="200" height="200"><path d="M853.333333 853.333333c-59.306667 0-118.613333-20.053333-170.666666-56.746666-104.106667 72.96-237.226667 72.96-341.333334 0C289.28 833.28 229.973333 853.333333 170.666667 853.333333H85.333333v85.333334h85.333334c58.453333 0 116.906667-14.933333 170.666666-42.666667 106.666667 55.466667 234.666667 55.466667 341.333334 0 53.76 27.733333 111.786667 42.666667 170.666666 42.666667h85.333334v-85.333334h-85.333334z m33.28-42.666666H853.333333c-50.346667 0-100.693333-17.066667-145.92-49.066667l-24.746666-17.066667-24.746667 17.066667c-43.946667 30.72-94.293333 46.933333-145.92 46.933333-52.48 0-102.826667-16.213333-146.773333-46.933333l-23.893334-17.066667-24.32 17.066667C271.36 793.6 221.013333 810.666667 170.666667 810.666667h-33.28c22.613333-62.293333 100.693333-170.666667 374.613333-170.666667 85.333333 0 128 10.24 128 10.24 29.013333-58.453333 78.08-190.72 42.666667-359.253333l45.226666 30.293333c14.08 61.013333 40.106667 180.053333-11.093333 346.453333 112.213333 36.266667 154.453333 100.266667 169.813333 142.933334zM938.666667 323.84c-33.706667-46.506667-85.333333-80.213333-145.92-87.893333 5.12 5.973333 9.813333 12.8 14.506666 20.053333a214.613333 214.613333 0 0 1-19.2 253.866667c25.173333-61.866667 22.613333-134.826667-16.64-195.84-3.413333-3.413333-5.12-6.826667-7.68-10.666667-17.066667-24.746667-40.106667-44.8-64.853333-59.306667-86.613333 27.733333-149.333333 108.8-149.333333 203.946667 0 22.613333 3.413333 43.946667 9.386666 64-25.6-35.413333-40.106667-78.08-40.106666-125.013333 0-70.826667 34.133333-133.12 87.04-172.373334-44.373333-3.413333-90.026667 6.4-130.56 32-18.773333 11.52-34.986667 25.6-48.64 41.813334 16.64-40.106667 44.8-75.093333 85.333333-100.693334 44.373333-28.16 96-38.4 144.64-30.293333a221.866667 221.866667 0 0 0-45.226667-46.506667c-17.493333-13.226667-36.693333-23.466667-56.746666-30.72 42.666667 1.28 87.04 15.36 124.16 43.093334 18.773333 14.08 33.706667 31.146667 46.506666 49.493333 2.56 0 5.12-0.426667 8.106667-0.426667A214.613333 214.613333 0 0 1 938.666667 323.84z" p-id="2048"></path></svg>